<?xml version="1.0" encoding="UTF-8"?>
<svg xmlns="http://www.w3.org/2000/svg" xmlns:xlink="http://www.w3.org/1999/xlink" width="3450" height="3450" viewBox="0 0 3450 3450">
<rect x="-345" y="-345" width="4140" height="4140" fill="rgb(99.21875%, 98.4375%, 96.875%)" fill-opacity="1"/>
<path fill-rule="nonzero" fill="rgb(100%, 80.076599%, 0%)" fill-opacity="1" d="M 3214.660156 729.179688 C 3214.660156 855.378906 3054.078125 957.691406 2855.988281 957.691406 C 2657.890625 957.691406 2500.699219 916.460938 2497.308594 729.179688 C 2493.921875 541.910156 2657.890625 500.671875 2855.988281 500.671875 C 3054.078125 500.671875 3214.660156 602.980469 3214.660156 729.179688 "/>
<path fill-rule="nonzero" fill="rgb(29.026794%, 16.868591%, 13.719177%)" fill-opacity="1" d="M 2836.789062 500.808594 C 2804.109375 501.28125 2772.539062 503.019531 2742.621094 506.46875 C 2803.058594 662.789062 2808.238281 809.371094 2756.011719 953.261719 C 2785.769531 956.191406 2817.160156 957.5 2849.71875 957.648438 C 2896.390625 809.730469 2890.898438 655.621094 2836.789062 500.808594 Z M 2934.199219 506.140625 C 2994.28125 661.378906 2999.859375 807.011719 2948.878906 949.941406 C 2985.96875 943.621094 3020.679688 933.609375 3052 920.558594 C 3084.238281 794.261719 3079.171875 663.820312 3038.941406 532.609375 C 3006.910156 520.480469 2971.660156 511.441406 2934.199219 506.140625 "/>
<path fill-rule="nonzero" fill="rgb(66.601562%, 71.679688%, 100%)" fill-opacity="1" d="M 2880.511719 816.621094 C 2880.511719 816.621094 3005.339844 1011.71875 2884.25 1067.789062 C 2747.601562 1131.058594 2751.910156 856.929688 2880.511719 816.621094 "/>
<path fill-rule="nonzero" fill="rgb(66.601562%, 71.679688%, 100%)" fill-opacity="1" d="M 2867.539062 617.121094 C 2867.539062 617.121094 2742.710938 422.011719 2863.789062 365.949219 C 3000.441406 302.671875 2996.128906 576.808594 2867.539062 617.121094 "/>
<path fill="none" stroke-width="85.0394" stroke-linecap="round" stroke-linejoin="round" stroke="rgb(29.026794%, 16.868591%, 13.719177%)" stroke-opacity="1" stroke-miterlimit="4" d="M 26584.296875 28646.71875 C 26839.882812 28942.617188 26964.609375 29362.695312 26928.515625 29790.703125 " transform="matrix(0.1, 0, 0, -0.1, 0, 3450)"/>
<path fill="none" stroke-width="85.0394" stroke-linecap="round" stroke-linejoin="round" stroke="rgb(29.026794%, 16.868591%, 13.719177%)" stroke-opacity="1" stroke-miterlimit="4" d="M 26584.296875 25703.28125 C 26839.882812 25407.382812 26964.609375 24987.382812 26928.515625 24559.296875 " transform="matrix(0.1, 0, 0, -0.1, 0, 3450)"/>
<path fill-rule="nonzero" fill="rgb(29.026794%, 16.868591%, 13.719177%)" fill-opacity="1" d="M 2035.078125 1728.71875 C 2049.699219 1736.050781 2057.171875 1750.75 2051.75 1761.558594 C 2046.328125 1772.371094 2030.078125 1775.199219 2015.449219 1767.859375 C 2000.828125 1760.53125 1993.359375 1745.828125 1998.78125 1735.019531 C 2004.199219 1724.210938 2020.449219 1721.378906 2035.078125 1728.71875 "/>
<path fill-rule="nonzero" fill="rgb(29.026794%, 16.868591%, 13.719177%)" fill-opacity="1" d="M 1983.710938 1831.191406 C 1998.339844 1838.53125 2005.800781 1853.230469 2000.390625 1864.039062 C 1994.96875 1874.851562 1978.71875 1877.671875 1964.089844 1870.339844 C 1949.460938 1863.011719 1942 1848.308594 1947.421875 1837.5 C 1952.839844 1826.679688 1969.089844 1823.859375 1983.710938 1831.191406 "/>
<path fill-rule="nonzero" fill="rgb(66.601562%, 71.679688%, 100%)" fill-opacity="1" d="M 2583.261719 1812.21875 C 2583.261719 1812.21875 2364.769531 1785.589844 2366.578125 1912.378906 C 2368.621094 2055.46875 2601.648438 1938.949219 2583.261719 1812.21875 "/>
<path fill-rule="nonzero" fill="rgb(66.601562%, 71.679688%, 100%)" fill-opacity="1" d="M 2584.738281 1794.558594 C 2584.738281 1794.558594 2366.25 1821.191406 2368.058594 1694.398438 C 2370.109375 1551.308594 2603.140625 1667.828125 2584.738281 1794.558594 "/>
<path fill-rule="nonzero" fill="rgb(29.026794%, 16.868591%, 13.719177%)" fill-opacity="1" d="M 3312.148438 2072.441406 C 3308.71875 2074.441406 3307.558594 2078.828125 3309.558594 2082.261719 C 3322.53125 2104.550781 3316.449219 2094.378906 3328.101562 2113.480469 C 3330.160156 2116.871094 3334.578125 2117.941406 3337.96875 2115.871094 C 3339.601562 2114.878906 3340.769531 2113.28125 3341.210938 2111.429688 C 3341.660156 2109.578125 3341.359375 2107.621094 3340.359375 2106 C 3328.691406 2086.859375 3334.980469 2097.371094 3321.980469 2075.039062 C 3321.019531 2073.390625 3319.449219 2072.191406 3317.601562 2071.699219 C 3315.761719 2071.210938 3313.800781 2071.480469 3312.148438 2072.441406 "/>
<path fill-rule="nonzero" fill="rgb(29.026794%, 16.868591%, 13.719177%)" fill-opacity="1" d="M 3357.578125 2041.121094 C 3354.378906 2043.460938 3353.671875 2047.949219 3356.011719 2051.160156 C 3369.890625 2070.210938 3362.308594 2060.640625 3381.859375 2082.25 C 3384.53125 2085.199219 3389.070312 2085.421875 3392.011719 2082.761719 C 3394.960938 2080.101562 3395.179688 2075.550781 3392.519531 2072.609375 C 3372.78125 2050.789062 3381.640625 2061.929688 3367.621094 2042.691406 C 3365.289062 2039.488281 3360.789062 2038.78125 3357.578125 2041.121094 "/>
<path fill-rule="nonzero" fill="rgb(66.601562%, 71.679688%, 100%)" fill-opacity="1" d="M 2997.96875 1812.21875 C 2997.96875 1812.21875 3216.460938 1785.589844 3214.648438 1912.378906 C 3212.609375 2055.46875 2979.578125 1938.949219 2997.96875 1812.21875 "/>
<path fill-rule="nonzero" fill="rgb(66.601562%, 71.679688%, 100%)" fill-opacity="1" d="M 2996.488281 1794.558594 C 2996.488281 1794.558594 3214.980469 1821.191406 3213.160156 1694.398438 C 3211.121094 1551.308594 2978.089844 1667.828125 2996.488281 1794.558594 "/>
<path fill-rule="nonzero" fill="rgb(100%, 80.076599%, 0%)" fill-opacity="1" d="M 2786.539062 2134.488281 C 2660.339844 2134.488281 2558.03125 1973.910156 2558.03125 1775.808594 C 2558.03125 1577.71875 2599.269531 1420.53125 2786.539062 1417.140625 C 2973.820312 1413.75 3015.050781 1577.71875 3015.050781 1775.808594 C 3015.050781 1973.910156 2912.738281 2134.488281 2786.539062 2134.488281 "/>
<path fill-rule="nonzero" fill="rgb(29.026794%, 16.868591%, 13.719177%)" fill-opacity="1" d="M 3012.488281 1697.570312 C 2854.429688 1756.628906 2705.691406 1762.039062 2559.730469 1711.699219 C 2558.570312 1732.480469 2558.03125 1753.878906 2558.03125 1775.808594 C 2558.03125 1787.878906 2558.421875 1799.800781 2559.160156 1811.558594 C 2706.929688 1854.921875 2860.371094 1849.390625 3014.601562 1798.140625 C 3014.890625 1790.75 3015.050781 1783.308594 3015.050781 1775.808594 C 3015.050781 1748.980469 3014.261719 1722.808594 3012.488281 1697.570312 Z M 2999.769531 1904.980469 C 2852.769531 1957.398438 2713.730469 1963.03125 2577.328125 1920.238281 C 2588.960938 1961.679688 2605.429688 1999.019531 2625.628906 2030.46875 C 2733.390625 2051.28125 2843.710938 2046.929688 2954.769531 2018.53125 C 2973.988281 1985.730469 2989.359375 1947.300781 2999.769531 1904.980469 "/>
<path fill-rule="nonzero" fill="rgb(29.026794%, 16.868591%, 13.719177%)" fill-opacity="1" d="M 2674.320312 1354.710938 C 2672.988281 1353.75 2671.328125 1353.371094 2669.71875 1353.640625 C 2668.109375 1353.898438 2666.671875 1354.800781 2665.71875 1356.128906 C 2664.769531 1357.460938 2664.378906 1359.109375 2664.648438 1360.71875 C 2664.921875 1362.339844 2665.820312 1363.769531 2667.140625 1364.730469 C 2695.25 1384.839844 2708.011719 1409.511719 2712.839844 1453.941406 C 2713.210938 1457.320312 2716.25 1459.769531 2719.628906 1459.398438 C 2723.019531 1459.03125 2725.460938 1455.988281 2725.089844 1452.609375 C 2720.050781 1406.230469 2705 1376.671875 2674.320312 1354.710938 "/>
<path fill-rule="nonzero" fill="rgb(29.026794%, 16.868591%, 13.719177%)" fill-opacity="1" d="M 2728.609375 1640.179688 C 2726.449219 1639.871094 2724.261719 1640.429688 2722.519531 1641.730469 C 2720.769531 1643.039062 2719.621094 1644.980469 2719.308594 1647.140625 C 2719 1649.289062 2719.558594 1651.488281 2720.859375 1653.230469 C 2740.898438 1680 2768.871094 1689.679688 2793.679688 1687.628906 C 2818.488281 1685.578125 2840.660156 1672.621094 2850.648438 1653.378906 C 2851.648438 1651.449219 2851.851562 1649.199219 2851.191406 1647.121094 C 2850.53125 1645.039062 2849.070312 1643.308594 2847.140625 1642.308594 C 2843.109375 1640.21875 2838.160156 1641.789062 2836.070312 1645.808594 C 2829.441406 1658.589844 2812.089844 1669.628906 2792.328125 1671.261719 C 2772.558594 1672.890625 2750.878906 1665.921875 2734.011719 1643.390625 C 2732.710938 1641.640625 2730.761719 1640.488281 2728.609375 1640.179688 "/>
<path fill-rule="nonzero" fill="rgb(100%, 48.242188%, 32.542419%)" fill-opacity="1" d="M 2857.351562 1609.269531 C 2857.351562 1591.128906 2877.53125 1576.429688 2902.429688 1576.429688 C 2927.328125 1576.429688 2947.511719 1591.128906 2947.511719 1609.269531 C 2947.511719 1627.410156 2927.328125 1642.109375 2902.429688 1642.109375 C 2877.53125 1642.109375 2857.351562 1627.410156 2857.351562 1609.269531 "/>
<path fill-rule="nonzero" fill="rgb(100%, 48.242188%, 32.542419%)" fill-opacity="1" d="M 2615.210938 1609.269531 C 2615.210938 1591.128906 2635.390625 1576.429688 2660.289062 1576.429688 C 2685.191406 1576.429688 2705.371094 1591.128906 2705.371094 1609.269531 C 2705.371094 1627.410156 2685.191406 1642.109375 2660.289062 1642.109375 C 2635.390625 1642.109375 2615.210938 1627.410156 2615.210938 1609.269531 "/>
<path fill-rule="nonzero" fill="rgb(29.026794%, 16.868591%, 13.719177%)" fill-opacity="1" d="M 2867.101562 1354.710938 C 2868.429688 1353.75 2870.089844 1353.371094 2871.699219 1353.640625 C 2873.308594 1353.898438 2874.75 1354.800781 2875.699219 1356.128906 C 2876.648438 1357.460938 2877.039062 1359.109375 2876.769531 1360.71875 C 2876.5 1362.339844 2875.601562 1363.769531 2874.28125 1364.730469 C 2846.171875 1384.839844 2833.410156 1409.511719 2828.578125 1453.941406 C 2828.210938 1457.320312 2825.171875 1459.769531 2821.789062 1459.398438 C 2820.160156 1459.21875 2818.671875 1458.410156 2817.648438 1457.128906 C 2816.628906 1455.859375 2816.148438 1454.230469 2816.328125 1452.609375 C 2821.371094 1406.230469 2836.421875 1376.671875 2867.101562 1354.710938 "/>
<path fill-rule="nonzero" fill="rgb(29.026794%, 16.868591%, 13.719177%)" fill-opacity="1" d="M 2669.878906 1549.679688 C 2668.558594 1549.871094 2667.210938 1549.53125 2666.128906 1548.730469 C 2665.058594 1547.921875 2664.351562 1546.730469 2664.160156 1545.398438 C 2663.96875 1544.070312 2664.308594 1542.71875 2665.121094 1541.648438 C 2677.449219 1525.171875 2694.671875 1519.210938 2709.941406 1520.46875 C 2725.21875 1521.730469 2738.871094 1529.710938 2745.019531 1541.558594 C 2745.640625 1542.75 2745.761719 1544.128906 2745.351562 1545.410156 C 2744.941406 1546.691406 2744.050781 1547.75 2742.859375 1548.371094 C 2740.378906 1549.660156 2737.328125 1548.691406 2736.039062 1546.210938 C 2731.960938 1538.351562 2721.28125 1531.550781 2709.109375 1530.550781 C 2696.941406 1529.539062 2683.589844 1533.839844 2673.210938 1547.710938 C 2672.410156 1548.78125 2671.210938 1549.488281 2669.878906 1549.679688 "/>
<path fill-rule="nonzero" fill="rgb(29.026794%, 16.868591%, 13.719177%)" fill-opacity="1" d="M 2887.53125 1549.679688 C 2888.851562 1549.871094 2890.199219 1549.53125 2891.28125 1548.730469 C 2892.351562 1547.921875 2893.058594 1546.730469 2893.25 1545.398438 C 2893.441406 1544.070312 2893.101562 1542.71875 2892.289062 1541.648438 C 2879.960938 1525.171875 2862.738281 1519.210938 2847.460938 1520.46875 C 2832.191406 1521.730469 2818.539062 1529.710938 2812.390625 1541.558594 C 2811.769531 1542.75 2811.648438 1544.128906 2812.058594 1545.410156 C 2812.460938 1546.691406 2813.359375 1547.75 2814.550781 1548.371094 C 2817.03125 1549.660156 2820.078125 1548.691406 2821.371094 1546.210938 C 2825.449219 1538.351562 2836.128906 1531.550781 2848.300781 1530.550781 C 2860.46875 1529.539062 2873.808594 1533.839844 2884.199219 1547.710938 C 2885 1548.78125 2886.199219 1549.488281 2887.53125 1549.679688 "/>
<path fill-rule="nonzero" fill="rgb(66.601562%, 71.679688%, 100%)" fill-opacity="1" d="M 650.480469 573.171875 C 650.480469 573.171875 626.867188 379.421875 739.300781 381.03125 C 866.1875 382.839844 762.867188 589.488281 650.480469 573.171875 "/>
<path fill-rule="nonzero" fill="rgb(66.601562%, 71.679688%, 100%)" fill-opacity="1" d="M 634.824219 574.488281 C 634.824219 574.488281 658.4375 380.738281 546.003906 382.351562 C 419.113281 384.160156 522.4375 590.808594 634.824219 574.488281 "/>
<path fill-rule="nonzero" fill="rgb(100%, 80.076599%, 0%)" fill-opacity="1" d="M 969.355469 795.320312 C 969.355469 921.519531 808.769531 1023.828125 610.679688 1023.828125 C 412.585938 1023.828125 255.394531 982.589844 252.003906 795.320312 C 248.609375 608.039062 412.585938 566.808594 610.679688 566.808594 C 808.769531 566.808594 969.355469 669.109375 969.355469 795.320312 "/>
<path fill-rule="nonzero" fill="rgb(29.026794%, 16.868591%, 13.719177%)" fill-opacity="1" d="M 591.484375 566.941406 C 558.804688 567.410156 527.230469 569.160156 497.316406 572.601562 C 557.746094 728.921875 562.929688 875.5 510.703125 1019.398438 C 540.457031 1022.328125 571.851562 1023.640625 604.410156 1023.789062 C 651.082031 875.871094 645.589844 721.75 591.484375 566.941406 Z M 688.890625 572.269531 C 748.976562 727.511719 754.554688 873.140625 703.570312 1016.070312 C 740.660156 1009.75 775.375 999.75 806.695312 986.699219 C 838.929688 860.390625 833.863281 729.949219 793.632812 598.75 C 761.597656 586.621094 726.351562 577.578125 688.890625 572.269531 "/>
<path fill-rule="nonzero" fill="rgb(29.026794%, 16.868591%, 13.719177%)" fill-opacity="1" d="M 348.734375 854.261719 C 346.578125 853.949219 344.386719 854.511719 342.644531 855.820312 C 340.898438 857.121094 339.746094 859.070312 339.433594 861.21875 C 339.125 863.378906 339.683594 865.570312 340.988281 867.308594 C 361.027344 894.089844 388.992188 903.761719 413.804688 901.71875 C 438.617188 899.671875 460.789062 886.710938 470.777344 867.46875 C 471.777344 865.53125 471.972656 863.28125 471.3125 861.199219 C 470.65625 859.128906 469.199219 857.398438 467.265625 856.390625 C 463.242188 854.300781 458.28125 855.871094 456.191406 859.898438 C 449.5625 872.671875 432.222656 883.710938 412.453125 885.351562 C 392.6875 886.980469 371.003906 880.011719 354.140625 857.46875 C 352.835938 855.730469 350.890625 854.570312 348.734375 854.261719 "/>
<path fill-rule="nonzero" fill="rgb(29.026794%, 16.868591%, 13.719177%)" fill-opacity="1" d="M 330.734375 758.300781 C 330.734375 742.558594 338.261719 729.800781 347.546875 729.800781 C 356.828125 729.800781 364.355469 742.558594 364.355469 758.300781 C 364.355469 774.050781 356.828125 786.808594 347.546875 786.808594 C 338.261719 786.808594 330.734375 774.050781 330.734375 758.300781 "/>
<path fill-rule="nonzero" fill="rgb(29.026794%, 16.868591%, 13.719177%)" fill-opacity="1" d="M 441.835938 758.300781 C 441.835938 742.558594 449.363281 729.800781 458.644531 729.800781 C 467.929688 729.800781 475.457031 742.558594 475.457031 758.300781 C 475.457031 774.050781 467.929688 786.808594 458.644531 786.808594 C 449.363281 786.808594 441.835938 774.050781 441.835938 758.300781 "/>
<path fill-rule="nonzero" fill="rgb(29.026794%, 16.868591%, 13.719177%)" fill-opacity="1" d="M 293.390625 549.371094 C 292.058594 548.410156 290.40625 548.03125 288.796875 548.300781 C 287.183594 548.558594 285.742188 549.460938 284.789062 550.789062 C 283.839844 552.121094 283.457031 553.769531 283.722656 555.378906 C 283.992188 556.988281 284.890625 558.429688 286.21875 559.378906 C 314.328125 579.5 327.085938 604.171875 331.917969 648.601562 C 332.285156 651.980469 335.324219 654.421875 338.707031 654.058594 C 342.089844 653.691406 344.535156 650.648438 344.167969 647.269531 C 339.121094 600.890625 324.078125 571.328125 293.390625 549.371094 "/>
<path fill-rule="nonzero" fill="rgb(29.026794%, 16.868591%, 13.719177%)" fill-opacity="1" d="M 388.578125 536.199219 C 385.421875 534.929688 381.835938 536.46875 380.570312 539.621094 C 379.304688 542.78125 380.839844 546.371094 383.996094 547.628906 C 383.996094 547.628906 395.203125 552.148438 405.40625 563.359375 C 415.613281 574.570312 424.625 591.769531 419.691406 619.070312 C 419.089844 622.410156 421.3125 625.609375 424.65625 626.21875 C 426.265625 626.511719 427.921875 626.148438 429.265625 625.21875 C 430.609375 624.289062 431.527344 622.859375 431.816406 621.261719 C 437.402344 590.351562 426.675781 568.421875 414.519531 555.058594 C 402.363281 541.710938 388.578125 536.199219 388.578125 536.199219 "/>
<path fill-rule="nonzero" fill="rgb(100%, 48.242188%, 32.542419%)" fill-opacity="1" d="M 477.476562 823.359375 C 477.476562 805.21875 497.660156 790.511719 522.558594 790.511719 C 547.453125 790.511719 567.636719 805.21875 567.636719 823.359375 C 567.636719 841.488281 547.453125 856.199219 522.558594 856.199219 C 497.660156 856.199219 477.476562 841.488281 477.476562 823.359375 "/>
<path fill-rule="nonzero" fill="rgb(100%, 48.242188%, 32.542419%)" fill-opacity="1" d="M 235.339844 823.359375 C 235.339844 805.21875 255.519531 790.511719 280.417969 790.511719 C 305.3125 790.511719 325.496094 805.21875 325.496094 823.359375 C 325.496094 841.488281 305.3125 856.199219 280.417969 856.199219 C 255.519531 856.199219 235.339844 841.488281 235.339844 823.359375 "/>
<path fill-rule="nonzero" fill="rgb(29.026794%, 16.868591%, 13.719177%)" fill-opacity="1" d="M 463.757812 993.28125 C 459.796875 993.03125 456.382812 996.039062 456.136719 1000 C 454.515625 1025.980469 453.90625 1015.589844 457.492188 1038.898438 C 458.097656 1042.820312 461.769531 1045.511719 465.691406 1044.910156 C 469.613281 1044.300781 472.304688 1040.628906 471.703125 1036.710938 C 468.042969 1012.929688 468.824219 1027.410156 470.484375 1000.898438 C 470.601562 999 469.960938 997.128906 468.699219 995.699219 C 467.4375 994.269531 465.660156 993.398438 463.757812 993.28125 "/>
<path fill-rule="nonzero" fill="rgb(29.026794%, 16.868591%, 13.719177%)" fill-opacity="1" d="M 521.664062 1002.339844 C 517.726562 1002.828125 514.933594 1006.421875 515.425781 1010.359375 C 518.660156 1036.238281 517.949219 1023.019531 517.949219 1045.53125 C 517.949219 1047.441406 518.703125 1049.269531 520.054688 1050.609375 C 521.398438 1051.960938 523.230469 1052.71875 525.136719 1052.71875 C 527.039062 1052.71875 528.867188 1051.960938 530.214844 1050.609375 C 531.5625 1049.269531 532.320312 1047.441406 532.320312 1045.53125 C 532.320312 1023.289062 532.882812 1034.140625 529.6875 1008.578125 C 529.195312 1004.640625 525.605469 1001.851562 521.664062 1002.339844 "/>
<path fill-rule="nonzero" fill="rgb(29.026794%, 16.868591%, 13.719177%)" fill-opacity="1" d="M 661.210938 999.71875 C 657.25 999.96875 654.238281 1003.378906 654.488281 1007.339844 C 656.097656 1033.078125 655.214844 1021.261719 657.074219 1043.550781 C 657.402344 1047.511719 660.875 1050.449219 664.828125 1050.121094 C 666.730469 1049.960938 668.488281 1049.050781 669.71875 1047.601562 C 670.953125 1046.140625 671.554688 1044.261719 671.394531 1042.359375 C 669.535156 1020.019531 670.445312 1032.238281 668.832031 1006.441406 C 668.714844 1004.539062 667.84375 1002.761719 666.414062 1001.5 C 664.984375 1000.238281 663.113281 999.601562 661.210938 999.71875 "/>
<path fill-rule="nonzero" fill="rgb(29.026794%, 16.868591%, 13.719177%)" fill-opacity="1" d="M 715.859375 992.070312 C 711.945312 992.730469 709.300781 996.429688 709.953125 1000.339844 C 713.828125 1023.601562 711.332031 1011.648438 719.132812 1039.730469 C 720.195312 1043.550781 724.15625 1045.789062 727.980469 1044.730469 C 731.804688 1043.671875 734.042969 1039.710938 732.980469 1035.878906 C 725.105469 1007.53125 728.042969 1021.460938 724.128906 997.980469 C 723.476562 994.070312 719.773438 991.421875 715.859375 992.070312 "/>
<path fill-rule="nonzero" fill="rgb(66.601562%, 71.679688%, 100%)" fill-opacity="1" d="M 1521.789062 765.339844 C 1521.789062 765.339844 1303.308594 738.710938 1305.121094 865.5 C 1307.160156 1008.589844 1540.191406 892.078125 1521.789062 765.339844 "/>
<path fill-rule="nonzero" fill="rgb(66.601562%, 71.679688%, 100%)" fill-opacity="1" d="M 1523.28125 747.691406 C 1523.28125 747.691406 1304.789062 774.308594 1306.601562 647.53125 C 1308.648438 504.441406 1541.679688 620.949219 1523.28125 747.691406 "/>
<path fill-rule="nonzero" fill="rgb(29.026794%, 16.868591%, 13.719177%)" fill-opacity="1" d="M 1810.148438 1078.449219 C 1806.71875 1080.449219 1805.558594 1084.851562 1807.558594 1088.28125 C 1820.53125 1110.570312 1814.449219 1100.398438 1826.101562 1119.488281 C 1828.160156 1122.878906 1832.578125 1123.949219 1835.96875 1121.890625 C 1837.601562 1120.898438 1838.769531 1119.300781 1839.21875 1117.441406 C 1839.660156 1115.589844 1839.359375 1113.640625 1838.371094 1112.011719 C 1826.691406 1092.871094 1832.980469 1103.390625 1819.980469 1081.050781 C 1819.019531 1079.398438 1817.449219 1078.199219 1815.609375 1077.710938 C 1813.761719 1077.230469 1811.800781 1077.488281 1810.148438 1078.449219 "/>
<path fill-rule="nonzero" fill="rgb(29.026794%, 16.868591%, 13.719177%)" fill-opacity="1" d="M 1855.589844 1047.128906 C 1852.378906 1049.46875 1851.671875 1053.960938 1854.011719 1057.171875 C 1867.898438 1076.230469 1860.308594 1066.660156 1879.859375 1088.269531 C 1882.53125 1091.210938 1887.070312 1091.441406 1890.011719 1088.769531 C 1892.960938 1086.109375 1893.179688 1081.570312 1890.519531 1078.621094 C 1870.78125 1056.808594 1879.640625 1067.941406 1865.628906 1048.710938 C 1863.289062 1045.5 1858.789062 1044.789062 1855.589844 1047.128906 "/>
<path fill-rule="nonzero" fill="rgb(66.601562%, 71.679688%, 100%)" fill-opacity="1" d="M 1936.511719 765.339844 C 1936.511719 765.339844 2155 738.710938 2153.191406 865.5 C 2151.140625 1008.589844 1918.109375 892.078125 1936.511719 765.339844 "/>
<path fill-rule="nonzero" fill="rgb(66.601562%, 71.679688%, 100%)" fill-opacity="1" d="M 1935.03125 747.691406 C 1935.03125 747.691406 2153.511719 774.308594 2151.699219 647.53125 C 2149.660156 504.441406 1916.628906 620.949219 1935.03125 747.691406 "/>
<path fill-rule="nonzero" fill="rgb(100%, 80.076599%, 0%)" fill-opacity="1" d="M 1725.078125 1087.609375 C 1598.878906 1087.609375 1496.570312 927.03125 1496.570312 728.941406 C 1496.570312 530.851562 1537.800781 373.660156 1725.078125 370.261719 C 1912.359375 366.871094 1953.589844 530.851562 1953.589844 728.941406 C 1953.589844 927.03125 1851.28125 1087.609375 1725.078125 1087.609375 "/>
<path fill-rule="nonzero" fill="rgb(29.026794%, 16.868591%, 13.719177%)" fill-opacity="1" d="M 1951.019531 650.691406 C 1792.96875 709.761719 1644.230469 715.160156 1498.269531 664.828125 C 1497.109375 685.609375 1496.570312 707 1496.570312 728.941406 C 1496.570312 741 1496.949219 752.929688 1497.699219 764.691406 C 1645.46875 808.039062 1798.910156 802.511719 1953.140625 751.261719 C 1953.429688 743.871094 1953.589844 736.441406 1953.589844 728.941406 C 1953.589844 702.109375 1952.800781 675.941406 1951.019531 650.691406 Z M 1938.308594 858.109375 C 1791.308594 910.519531 1652.269531 916.160156 1515.871094 873.359375 C 1527.5 914.800781 1543.96875 952.140625 1564.171875 983.589844 C 1671.921875 1004.398438 1782.238281 1000.050781 1893.308594 971.648438 C 1912.53125 938.851562 1927.898438 900.421875 1938.308594 858.109375 "/>
<path fill-rule="nonzero" fill="rgb(29.026794%, 16.868591%, 13.719177%)" fill-opacity="1" d="M 1612.851562 307.828125 C 1611.519531 306.878906 1609.871094 306.488281 1608.261719 306.761719 C 1606.648438 307.03125 1605.210938 307.929688 1604.25 309.25 C 1603.300781 310.578125 1602.921875 312.238281 1603.191406 313.851562 C 1603.460938 315.460938 1604.351562 316.898438 1605.679688 317.851562 C 1633.789062 337.96875 1646.550781 362.640625 1651.378906 407.058594 C 1651.75 410.449219 1654.789062 412.890625 1658.171875 412.519531 C 1661.550781 412.148438 1664 409.109375 1663.628906 405.730469 C 1658.589844 359.359375 1643.539062 329.800781 1612.851562 307.828125 "/>
<path fill-rule="nonzero" fill="rgb(29.026794%, 16.868591%, 13.719177%)" fill-opacity="1" d="M 1702.308594 614.628906 C 1700.238281 615.308594 1698.539062 616.800781 1697.558594 618.738281 C 1696.589844 620.691406 1696.429688 622.949219 1697.121094 625.011719 C 1697.808594 627.078125 1699.289062 628.789062 1701.238281 629.761719 C 1731.140625 644.71875 1760.480469 640.839844 1781.75 627.890625 C 1803.011719 614.941406 1817.019531 593.421875 1817.328125 571.75 C 1817.359375 569.570312 1816.53125 567.46875 1815.011719 565.910156 C 1813.488281 564.339844 1811.410156 563.449219 1809.230469 563.421875 C 1804.699219 563.359375 1800.96875 566.980469 1800.898438 571.511719 C 1800.699219 585.898438 1790.140625 603.550781 1773.199219 613.859375 C 1756.261719 624.179688 1733.761719 627.660156 1708.578125 615.070312 C 1706.628906 614.101562 1704.378906 613.941406 1702.308594 614.628906 "/>
<path fill-rule="nonzero" fill="rgb(29.026794%, 16.868591%, 13.719177%)" fill-opacity="1" d="M 2595.320312 530.558594 C 2595.320312 514.808594 2602.839844 502.050781 2612.128906 502.050781 C 2621.410156 502.050781 2628.941406 514.808594 2628.941406 530.558594 C 2628.941406 546.300781 2621.410156 559.058594 2612.128906 559.058594 C 2602.839844 559.058594 2595.320312 546.300781 2595.320312 530.558594 "/>
<path fill-rule="nonzero" fill="rgb(29.026794%, 16.868591%, 13.719177%)" fill-opacity="1" d="M 2706.421875 530.558594 C 2706.421875 514.808594 2713.941406 502.050781 2723.230469 502.050781 C 2732.511719 502.050781 2740.039062 514.808594 2740.039062 530.558594 C 2740.039062 546.300781 2732.511719 559.058594 2723.230469 559.058594 C 2713.941406 559.058594 2706.421875 546.300781 2706.421875 530.558594 "/>
<path fill-rule="nonzero" fill="rgb(100%, 48.242188%, 32.542419%)" fill-opacity="1" d="M 2742.058594 595.609375 C 2742.058594 577.46875 2762.238281 562.761719 2787.140625 562.761719 C 2812.039062 562.761719 2832.21875 577.46875 2832.21875 595.609375 C 2832.21875 613.738281 2812.039062 628.449219 2787.140625 628.449219 C 2762.238281 628.449219 2742.058594 613.738281 2742.058594 595.609375 "/>
<path fill-rule="nonzero" fill="rgb(100%, 48.242188%, 32.542419%)" fill-opacity="1" d="M 2499.921875 595.609375 C 2499.921875 577.46875 2520.101562 562.761719 2545 562.761719 C 2569.898438 562.761719 2590.078125 577.46875 2590.078125 595.609375 C 2590.078125 613.738281 2569.898438 628.449219 2545 628.449219 C 2520.101562 628.449219 2499.921875 613.738281 2499.921875 595.609375 "/>
<path fill-rule="nonzero" fill="rgb(29.026794%, 16.868591%, 13.719177%)" fill-opacity="1" d="M 1805.640625 307.828125 C 1806.96875 306.878906 1808.621094 306.488281 1810.238281 306.761719 C 1811.851562 307.03125 1813.289062 307.929688 1814.238281 309.25 C 1815.191406 310.578125 1815.578125 312.238281 1815.308594 313.851562 C 1815.039062 315.460938 1814.140625 316.898438 1812.808594 317.851562 C 1784.699219 337.96875 1771.949219 362.640625 1767.109375 407.058594 C 1766.75 410.449219 1763.710938 412.890625 1760.320312 412.519531 C 1756.941406 412.148438 1754.5 409.109375 1754.871094 405.730469 C 1759.910156 359.359375 1774.960938 329.800781 1805.640625 307.828125 "/>
<path fill-rule="nonzero" fill="rgb(61.914062%, 67.771912%, 98.826599%)" fill-opacity="1" d="M 618.214844 1631.648438 C 618.214844 1631.648438 641.824219 1437.898438 529.390625 1439.5 C 402.503906 1441.320312 505.824219 1647.960938 618.214844 1631.648438 "/>
<path fill-rule="nonzero" fill="rgb(66.601562%, 71.679688%, 100%)" fill-opacity="1" d="M 610.972656 1641.800781 C 610.972656 1641.800781 583.421875 1415.75 714.597656 1417.628906 C 862.632812 1419.738281 742.089844 1660.828125 610.972656 1641.800781 "/>
<path fill-rule="nonzero" fill="rgb(100%, 80.076599%, 0%)" fill-opacity="1" d="M 952.742188 1852.46875 C 952.742188 1978.679688 792.15625 2080.980469 594.066406 2080.980469 C 395.976562 2080.980469 238.78125 2039.75 235.390625 1852.46875 C 231.996094 1665.199219 395.976562 1623.960938 594.066406 1623.960938 C 792.15625 1623.960938 952.742188 1726.269531 952.742188 1852.46875 "/>
<path fill-rule="nonzero" fill="rgb(29.026794%, 16.868591%, 13.719177%)" fill-opacity="1" d="M 574.871094 1624.101562 C 542.191406 1624.570312 510.621094 1626.308594 480.703125 1629.761719 C 541.136719 1786.078125 546.316406 1932.660156 494.09375 2076.558594 C 523.84375 2079.480469 555.242188 2080.789062 587.796875 2080.941406 C 634.46875 1933.019531 628.976562 1778.910156 574.871094 1624.101562 Z M 672.277344 1629.429688 C 732.363281 1784.671875 737.941406 1930.300781 686.960938 2073.230469 C 724.046875 2066.910156 758.761719 2056.898438 790.082031 2043.851562 C 822.316406 1917.550781 817.253906 1787.109375 777.019531 1655.898438 C 744.984375 1643.769531 709.738281 1634.730469 672.277344 1629.429688 "/>
<path fill-rule="nonzero" fill="rgb(29.026794%, 16.868591%, 13.719177%)" fill-opacity="1" d="M 339.21875 1917.300781 C 336.285156 1917.429688 333.648438 1919.109375 332.296875 1921.71875 C 325.667969 1934.488281 308.324219 1945.53125 288.554688 1947.171875 C 276.214844 1948.179688 263.125 1945.851562 250.925781 1938.460938 C 253.953125 1946.230469 257.386719 1953.609375 261.226562 1960.601562 C 270.839844 1963.421875 280.597656 1964.308594 289.910156 1963.539062 C 314.722656 1961.488281 336.890625 1948.53125 346.878906 1929.289062 C 347.882812 1927.351562 348.074219 1925.101562 347.417969 1923.019531 C 346.757812 1920.949219 345.304688 1919.21875 343.371094 1918.210938 C 342.089844 1917.550781 340.65625 1917.230469 339.21875 1917.300781 "/>
<path fill-rule="nonzero" fill="rgb(29.026794%, 16.868591%, 13.719177%)" fill-opacity="1" d="M 303.238281 1815.558594 C 303.238281 1794.71875 313.199219 1777.828125 325.492188 1777.828125 C 337.78125 1777.828125 347.746094 1794.71875 347.746094 1815.558594 C 347.746094 1836.398438 337.78125 1853.300781 325.492188 1853.300781 C 313.199219 1853.300781 303.238281 1836.398438 303.238281 1815.558594 "/>
<path fill-rule="nonzero" fill="rgb(29.026794%, 16.868591%, 13.719177%)" fill-opacity="1" d="M 276.777344 1606.519531 C 275.449219 1605.570312 273.796875 1605.179688 272.183594 1605.449219 C 270.570312 1605.71875 269.128906 1606.621094 268.179688 1607.941406 C 267.226562 1609.269531 266.84375 1610.929688 267.113281 1612.539062 C 267.378906 1614.148438 268.277344 1615.589844 269.605469 1616.539062 C 297.714844 1636.660156 310.472656 1661.328125 315.304688 1705.75 C 315.675781 1709.140625 318.714844 1711.578125 322.097656 1711.210938 C 325.480469 1710.839844 327.921875 1707.808594 327.554688 1704.421875 C 322.507812 1658.050781 307.464844 1628.488281 276.777344 1606.519531 "/>
<path fill-rule="nonzero" fill="rgb(29.026794%, 16.868591%, 13.719177%)" fill-opacity="1" d="M 371.96875 1593.351562 C 368.808594 1592.089844 365.226562 1593.621094 363.957031 1596.78125 C 362.691406 1599.941406 364.226562 1603.519531 367.382812 1604.789062 C 367.382812 1604.789062 378.589844 1609.300781 388.796875 1620.511719 C 399 1631.730469 408.011719 1648.921875 403.082031 1676.21875 C 402.476562 1679.570312 404.699219 1682.769531 408.046875 1683.378906 C 409.652344 1683.671875 411.3125 1683.308594 412.652344 1682.378906 C 413.996094 1681.441406 414.914062 1680.019531 415.203125 1678.410156 C 420.789062 1647.511719 410.066406 1625.578125 397.90625 1612.21875 C 385.75 1598.859375 371.96875 1593.351562 371.96875 1593.351562 "/>
<path fill-rule="nonzero" fill="rgb(100%, 48.242188%, 32.542419%)" fill-opacity="1" d="M 318.238281 1900.71875 C 318.238281 1882.578125 338.421875 1867.878906 363.316406 1867.878906 C 388.214844 1867.878906 408.394531 1882.578125 408.394531 1900.71875 C 408.394531 1918.859375 388.214844 1933.570312 363.316406 1933.570312 C 338.421875 1933.570312 318.238281 1918.859375 318.238281 1900.71875 "/>
<path fill-rule="nonzero" fill="rgb(29.026794%, 16.868591%, 13.719177%)" fill-opacity="1" d="M 447.144531 2050.429688 C 443.183594 2050.191406 439.773438 2053.199219 439.523438 2057.160156 C 437.902344 2083.128906 437.296875 2072.75 440.878906 2096.050781 C 441.484375 2099.980469 445.15625 2102.671875 449.078125 2102.058594 C 453 2101.460938 455.691406 2097.789062 455.089844 2093.871094 C 451.429688 2070.078125 452.214844 2084.570312 453.871094 2058.058594 C 453.992188 2056.148438 453.347656 2054.28125 452.089844 2052.851562 C 450.824219 2051.421875 449.046875 2050.550781 447.144531 2050.429688 "/>
<path fill-rule="nonzero" fill="rgb(29.026794%, 16.868591%, 13.719177%)" fill-opacity="1" d="M 505.054688 2059.488281 C 501.117188 2059.980469 498.320312 2063.578125 498.8125 2067.511719 C 502.046875 2093.390625 501.335938 2080.171875 501.335938 2102.691406 C 501.335938 2104.589844 502.09375 2106.421875 503.441406 2107.769531 C 504.789062 2109.121094 506.617188 2109.871094 508.523438 2109.871094 C 510.429688 2109.871094 512.257812 2109.121094 513.605469 2107.769531 C 514.953125 2106.421875 515.710938 2104.589844 515.710938 2102.691406 C 515.710938 2080.441406 516.269531 2091.300781 513.074219 2065.730469 C 512.582031 2061.789062 508.992188 2059 505.054688 2059.488281 "/>
<path fill-rule="nonzero" fill="rgb(29.026794%, 16.868591%, 13.719177%)" fill-opacity="1" d="M 644.597656 2056.871094 C 640.636719 2057.121094 637.628906 2060.53125 637.875 2064.488281 C 639.484375 2090.230469 638.605469 2078.421875 640.460938 2100.710938 C 640.789062 2104.660156 644.261719 2107.601562 648.21875 2107.269531 C 650.117188 2107.121094 651.878906 2106.210938 653.109375 2104.75 C 654.339844 2103.300781 654.941406 2101.410156 654.78125 2099.511719 C 652.921875 2077.179688 653.832031 2089.390625 652.21875 2063.601562 C 652.101562 2061.699219 651.230469 2059.921875 649.800781 2058.660156 C 648.371094 2057.398438 646.5 2056.75 644.597656 2056.871094 "/>
<path fill-rule="nonzero" fill="rgb(29.026794%, 16.868591%, 13.719177%)" fill-opacity="1" d="M 699.246094 2049.230469 C 695.335938 2049.878906 692.6875 2053.578125 693.339844 2057.5 C 697.21875 2080.761719 694.71875 2068.800781 702.519531 2096.878906 C 703.582031 2100.710938 707.542969 2102.949219 711.367188 2101.878906 C 715.191406 2100.820312 717.429688 2096.859375 716.367188 2093.039062 C 708.496094 2064.691406 711.429688 2078.609375 707.519531 2055.140625 C 706.863281 2051.21875 703.164062 2048.578125 699.246094 2049.230469 "/>
<path fill-rule="nonzero" fill="rgb(100%, 80.076599%, 0%)" fill-opacity="1" d="M 2051.03125 1776.058594 C 2051.03125 1902.261719 1890.441406 2004.570312 1692.351562 2004.570312 C 1494.261719 2004.570312 1337.070312 1963.328125 1333.679688 1776.058594 C 1330.28125 1588.78125 1494.261719 1547.550781 1692.351562 1547.550781 C 1890.441406 1547.550781 2051.03125 1649.851562 2051.03125 1776.058594 "/>
<path fill-rule="nonzero" fill="rgb(29.026794%, 16.868591%, 13.719177%)" fill-opacity="1" d="M 1673.160156 1547.691406 C 1640.480469 1548.148438 1608.910156 1549.898438 1578.988281 1553.339844 C 1639.421875 1709.671875 1644.609375 1856.25 1592.378906 2000.140625 C 1622.128906 2003.070312 1653.53125 2004.378906 1686.078125 2004.53125 C 1732.761719 1856.609375 1727.261719 1702.488281 1673.160156 1547.691406 Z M 1770.570312 1553.011719 C 1830.648438 1708.25 1836.230469 1853.878906 1785.25 1996.808594 C 1822.328125 1990.488281 1857.050781 1980.488281 1888.371094 1967.441406 C 1920.601562 1841.128906 1915.539062 1710.691406 1875.308594 1579.488281 C 1843.269531 1567.359375 1808.03125 1558.320312 1770.570312 1553.011719 "/>
<path fill="none" stroke-width="198.425" stroke-linecap="round" stroke-linejoin="round" stroke="rgb(29.026794%, 16.868591%, 13.719177%)" stroke-opacity="1" stroke-miterlimit="4" d="M 14255.78125 16433.398438 C 14477.382812 16400.3125 14532.382812 16042.304688 14320 15932.382812 " transform="matrix(0.1, 0, 0, -0.1, 0, 3450)"/>
<path fill="none" stroke-width="198.425" stroke-linecap="round" stroke-linejoin="round" stroke="rgb(29.026794%, 16.868591%, 13.719177%)" stroke-opacity="1" stroke-miterlimit="4" d="M 14255.78125 17658.28125 C 14477.382812 17625.3125 14532.382812 17267.304688 14320 17157.382812 " transform="matrix(0.1, 0, 0, -0.1, 0, 3450)"/>
<path fill-rule="nonzero" fill="rgb(66.601562%, 71.679688%, 100%)" fill-opacity="1" d="M 1716.878906 1863.5 C 1716.878906 1863.5 1841.710938 2058.601562 1720.621094 2114.671875 C 1583.96875 2177.941406 1588.28125 1903.808594 1716.878906 1863.5 "/>
<path fill-rule="nonzero" fill="rgb(66.601562%, 71.679688%, 100%)" fill-opacity="1" d="M 1703.898438 1663.988281 C 1703.898438 1663.988281 1579.070312 1468.890625 1700.160156 1412.820312 C 1836.808594 1349.550781 1832.5 1623.679688 1703.898438 1663.988281 "/>
<path fill="none" stroke-width="85.0394" stroke-linecap="round" stroke-linejoin="round" stroke="rgb(29.026794%, 16.868591%, 13.719177%)" stroke-opacity="1" stroke-miterlimit="4" d="M 14948.007812 18177.890625 C 15203.59375 18473.90625 15328.203125 18893.90625 15292.1875 19321.992188 " transform="matrix(0.1, 0, 0, -0.1, 0, 3450)"/>
<path fill="none" stroke-width="85.0394" stroke-linecap="round" stroke-linejoin="round" stroke="rgb(29.026794%, 16.868591%, 13.719177%)" stroke-opacity="1" stroke-miterlimit="4" d="M 14948.007812 15234.609375 C 15203.59375 14938.59375 15328.203125 14518.59375 15292.1875 14090.507812 " transform="matrix(0.1, 0, 0, -0.1, 0, 3450)"/>
<path fill="none" stroke-width="113.386" stroke-linecap="round" stroke-linejoin="round" stroke="rgb(29.026794%, 16.868591%, 13.719177%)" stroke-opacity="1" stroke-miterlimit="4" d="M 4139.726562 4403.359375 C 4061.601562 4028.90625 4473.28125 3423.203125 4546.679688 3276.40625 " transform="matrix(0.1, 0, 0, -0.1, 0, 3450)"/>
<path fill="none" stroke-width="113.386" stroke-linecap="round" stroke-linejoin="round" stroke="rgb(29.026794%, 16.868591%, 13.719177%)" stroke-opacity="1" stroke-miterlimit="4" d="M 6471.875 4121.640625 C 6720.390625 3599.726562 6542.578125 3878.75 7082.304688 3339.023438 " transform="matrix(0.1, 0, 0, -0.1, 0, 3450)"/>
<path fill-rule="nonzero" fill="rgb(66.601562%, 71.679688%, 100%)" fill-opacity="1" d="M 634.824219 2605.546875 C 634.824219 2605.546875 658.4375 2411.789062 546.003906 2413.398438 C 419.113281 2415.210938 522.4375 2621.859375 634.824219 2605.546875 "/>
<path fill-rule="nonzero" fill="rgb(100%, 80.076599%, 0%)" fill-opacity="1" d="M 969.355469 2826.371094 C 969.355469 2952.574219 808.769531 3054.882812 610.679688 3054.882812 C 412.585938 3054.882812 255.394531 3013.648438 252.003906 2826.371094 C 248.609375 2639.09375 412.585938 2597.859375 610.679688 2597.859375 C 808.769531 2597.859375 969.355469 2700.167969 969.355469 2826.371094 "/>
<path fill-rule="nonzero" fill="rgb(29.026794%, 16.868591%, 13.719177%)" fill-opacity="1" d="M 591.484375 2598 C 558.804688 2598.464844 527.230469 2600.214844 497.316406 2603.65625 C 557.746094 2759.980469 562.929688 2906.558594 510.703125 3050.453125 C 540.457031 3053.378906 571.851562 3054.691406 604.410156 3054.839844 C 651.082031 2906.921875 645.589844 2752.804688 591.484375 2598 Z M 688.890625 2603.324219 C 748.976562 2758.566406 754.554688 2904.195312 703.570312 3047.125 C 740.660156 3040.808594 775.375 3030.800781 806.695312 3017.753906 C 838.929688 2891.445312 833.863281 2761.007812 793.632812 2629.800781 C 761.597656 2617.671875 726.351562 2608.632812 688.890625 2603.324219 "/>
<path fill-rule="nonzero" fill="rgb(29.026794%, 16.868591%, 13.719177%)" fill-opacity="1" d="M 348.734375 2885.316406 C 346.578125 2885.007812 344.386719 2885.566406 342.644531 2886.871094 C 340.898438 2888.175781 339.746094 2890.121094 339.433594 2892.277344 C 339.125 2894.433594 339.683594 2896.625 340.988281 2898.367188 C 361.027344 2925.140625 388.992188 2934.820312 413.804688 2932.769531 C 438.617188 2930.722656 460.789062 2917.761719 470.777344 2898.519531 C 471.777344 2896.585938 471.972656 2894.335938 471.3125 2892.257812 C 470.65625 2890.179688 469.199219 2888.449219 467.265625 2887.445312 C 463.242188 2885.359375 458.28125 2886.925781 456.191406 2890.953125 C 449.5625 2903.726562 432.222656 2914.769531 412.453125 2916.398438 C 392.6875 2918.03125 371.003906 2911.058594 354.140625 2888.527344 C 352.835938 2886.78125 350.890625 2885.628906 348.734375 2885.316406 "/>
<path fill-rule="nonzero" fill="rgb(29.026794%, 16.868591%, 13.719177%)" fill-opacity="1" d="M 293.390625 2580.421875 C 292.058594 2579.46875 290.40625 2579.082031 288.796875 2579.351562 C 287.183594 2579.617188 285.742188 2580.515625 284.789062 2581.84375 C 283.839844 2583.171875 283.457031 2584.824219 283.722656 2586.4375 C 283.992188 2588.046875 284.890625 2589.488281 286.21875 2590.4375 C 314.328125 2610.558594 327.085938 2635.226562 331.917969 2679.652344 C 332.285156 2683.035156 335.324219 2685.480469 338.707031 2685.109375 C 342.089844 2684.742188 344.535156 2681.703125 344.167969 2678.320312 C 339.121094 2631.945312 324.078125 2602.386719 293.390625 2580.421875 "/>
<path fill-rule="nonzero" fill="rgb(29.026794%, 16.868591%, 13.719177%)" fill-opacity="1" d="M 446.976562 2557.460938 C 449.621094 2555.320312 453.5 2555.734375 455.636719 2558.378906 C 457.773438 2561.027344 457.363281 2564.902344 454.714844 2567.042969 C 454.714844 2567.042969 445.328125 2574.648438 438.867188 2588.363281 C 432.40625 2602.078125 428.84375 2621.160156 441.578125 2645.808594 C 443.136719 2648.828125 441.953125 2652.546875 438.933594 2654.105469 C 437.480469 2654.855469 435.792969 2655 434.234375 2654.503906 C 432.679688 2654.007812 431.382812 2652.914062 430.632812 2651.464844 C 416.214844 2623.5625 420.023438 2599.453125 427.722656 2583.113281 C 435.417969 2566.773438 446.976562 2557.460938 446.976562 2557.460938 "/>
<path fill-rule="nonzero" fill="rgb(100%, 48.242188%, 32.542419%)" fill-opacity="1" d="M 477.476562 2854.410156 C 477.476562 2836.269531 497.660156 2821.566406 522.558594 2821.566406 C 547.453125 2821.566406 567.636719 2836.269531 567.636719 2854.410156 C 567.636719 2872.546875 547.453125 2887.253906 522.558594 2887.253906 C 497.660156 2887.253906 477.476562 2872.546875 477.476562 2854.410156 "/>
<path fill-rule="nonzero" fill="rgb(100%, 48.242188%, 32.542419%)" fill-opacity="1" d="M 235.339844 2854.410156 C 235.339844 2836.269531 255.519531 2821.566406 280.417969 2821.566406 C 305.3125 2821.566406 325.496094 2836.269531 325.496094 2854.410156 C 325.496094 2872.546875 305.3125 2887.253906 280.417969 2887.253906 C 255.519531 2887.253906 235.339844 2872.546875 235.339844 2854.410156 "/>
<path fill="none" stroke-width="113.386" stroke-linecap="round" stroke-linejoin="round" stroke="rgb(29.026794%, 16.868591%, 13.719177%)" stroke-opacity="1" stroke-miterlimit="4" d="M 3345.429688 6626.640625 C 3552.421875 6962.265625 3790.703125 6853.554688 3860.625 6600.898438 " transform="matrix(0.1, 0, 0, -0.1, 0, 3450)"/>
<path fill="none" stroke-width="113.386" stroke-linecap="round" stroke-linejoin="round" stroke="rgb(29.026794%, 16.868591%, 13.719177%)" stroke-opacity="1" stroke-miterlimit="4" d="M 4375.78125 6626.640625 C 4582.773438 6962.265625 4821.09375 6853.554688 4890.976562 6600.898438 " transform="matrix(0.1, 0, 0, -0.1, 0, 3450)"/>
<path fill-rule="nonzero" fill="rgb(66.601562%, 71.679688%, 100%)" fill-opacity="1" d="M 653.351562 2617.550781 C 653.351562 2617.550781 627.554688 2405.859375 750.398438 2407.609375 C 889.035156 2409.601562 776.144531 2635.378906 653.351562 2617.550781 "/>
<path fill="none" stroke-width="113.386" stroke-linecap="round" stroke-linejoin="round" stroke="rgb(29.026794%, 16.868591%, 13.719177%)" stroke-opacity="1" stroke-miterlimit="4" d="M 7270.117188 4481.601562 C 7532.5 3734.84375 7341.445312 4058.710938 7817.929688 3495.546875 " transform="matrix(0.1, 0, 0, -0.1, 0, 3450)"/>
<path fill="none" stroke-width="113.386" stroke-linecap="round" stroke-linejoin="round" stroke="rgb(29.026794%, 16.868591%, 13.719177%)" stroke-opacity="1" stroke-miterlimit="4" d="M 4937.96875 4246.835938 C 4978.515625 3827.226562 4980.390625 3567.226562 5297.96875 3276.40625 " transform="matrix(0.1, 0, 0, -0.1, 0, 3450)"/>
<path fill="none" stroke-width="113.386" stroke-linecap="round" stroke-linejoin="round" stroke="rgb(29.026794%, 16.868591%, 13.719177%)" stroke-opacity="1" stroke-miterlimit="4" d="M 15741.796875 4511.757812 C 15819.882812 4137.304688 15408.28125 3531.601562 15334.882812 3384.804688 " transform="matrix(0.1, 0, 0, -0.1, 0, 3450)"/>
<path fill="none" stroke-width="113.386" stroke-linecap="round" stroke-linejoin="round" stroke="rgb(29.026794%, 16.868591%, 13.719177%)" stroke-opacity="1" stroke-miterlimit="4" d="M 18111.015625 4113.28125 C 18359.492188 3591.40625 18181.71875 3870.390625 18721.40625 3330.703125 " transform="matrix(0.1, 0, 0, -0.1, 0, 3450)"/>
<path fill-rule="nonzero" fill="rgb(66.601562%, 71.679688%, 100%)" fill-opacity="1" d="M 1798.730469 2606.382812 C 1798.730469 2606.382812 1822.351562 2412.628906 1709.910156 2414.230469 C 1583.019531 2416.050781 1686.351562 2622.695312 1798.730469 2606.382812 "/>
<path fill-rule="nonzero" fill="rgb(100%, 80.076599%, 0%)" fill-opacity="1" d="M 2133.261719 2827.203125 C 2133.261719 2953.40625 1972.679688 3055.714844 1774.589844 3055.714844 C 1576.488281 3055.714844 1419.300781 3014.480469 1415.910156 2827.203125 C 1412.519531 2639.929688 1576.488281 2598.691406 1774.589844 2598.691406 C 1972.679688 2598.691406 2133.261719 2701.003906 2133.261719 2827.203125 "/>
<path fill-rule="nonzero" fill="rgb(29.026794%, 16.868591%, 13.719177%)" fill-opacity="1" d="M 1755.390625 2598.832031 C 1722.710938 2599.300781 1691.140625 2601.046875 1661.21875 2604.488281 C 1721.660156 2760.8125 1726.839844 2907.394531 1674.609375 3051.285156 C 1704.371094 3054.214844 1735.761719 3055.527344 1768.320312 3055.671875 C 1814.988281 2907.757812 1809.5 2753.640625 1755.390625 2598.832031 Z M 1852.800781 2604.160156 C 1912.890625 2759.402344 1918.460938 2905.03125 1867.480469 3047.960938 C 1904.570312 3041.640625 1939.28125 3031.632812 1970.601562 3018.585938 C 2002.839844 2892.277344 1997.769531 2761.839844 1957.539062 2630.636719 C 1925.511719 2618.507812 1890.261719 2609.46875 1852.800781 2604.160156 "/>
<path fill-rule="nonzero" fill="rgb(29.026794%, 16.868591%, 13.719177%)" fill-opacity="1" d="M 1512.640625 2886.152344 C 1510.488281 2885.839844 1508.300781 2886.398438 1506.550781 2887.703125 C 1504.808594 2889.007812 1503.648438 2890.953125 1503.339844 2893.109375 C 1503.03125 2895.265625 1503.589844 2897.457031 1504.898438 2899.203125 C 1524.941406 2925.972656 1552.898438 2935.652344 1577.710938 2933.605469 C 1602.53125 2931.558594 1624.699219 2918.59375 1634.679688 2899.355469 C 1635.691406 2897.421875 1635.878906 2895.167969 1635.21875 2893.089844 C 1634.558594 2891.015625 1633.109375 2889.285156 1631.179688 2888.28125 C 1627.148438 2886.191406 1622.191406 2887.761719 1620.101562 2891.785156 C 1613.46875 2904.558594 1596.128906 2915.601562 1576.359375 2917.234375 C 1556.601562 2918.863281 1534.910156 2911.894531 1518.050781 2889.359375 C 1516.738281 2887.617188 1514.800781 2886.460938 1512.640625 2886.152344 "/>
<path fill-rule="nonzero" fill="rgb(29.026794%, 16.868591%, 13.719177%)" fill-opacity="1" d="M 1457.300781 2581.253906 C 1455.96875 2580.300781 1454.320312 2579.917969 1452.699219 2580.183594 C 1451.089844 2580.449219 1449.648438 2581.347656 1448.699219 2582.679688 C 1447.75 2584.007812 1447.359375 2585.660156 1447.628906 2587.269531 C 1447.898438 2588.882812 1448.800781 2590.320312 1450.128906 2591.273438 C 1478.238281 2611.390625 1490.988281 2636.058594 1495.828125 2680.488281 C 1496.191406 2683.867188 1499.230469 2686.3125 1502.621094 2685.945312 C 1506 2685.578125 1508.441406 2682.535156 1508.078125 2679.15625 C 1503.03125 2632.78125 1487.988281 2603.21875 1457.300781 2581.253906 "/>
<path fill-rule="nonzero" fill="rgb(29.026794%, 16.868591%, 13.719177%)" fill-opacity="1" d="M 1610.878906 2558.292969 C 1613.53125 2556.15625 1617.410156 2556.566406 1619.550781 2559.214844 C 1621.679688 2561.859375 1621.269531 2565.738281 1618.628906 2567.875 C 1618.628906 2567.875 1609.238281 2575.484375 1602.78125 2589.199219 C 1596.320312 2602.910156 1592.75 2621.996094 1605.488281 2646.644531 C 1607.050781 2649.664062 1605.859375 2653.378906 1602.839844 2654.941406 C 1601.390625 2655.691406 1599.699219 2655.835938 1598.140625 2655.339844 C 1596.589844 2654.84375 1595.289062 2653.75 1594.539062 2652.296875 C 1580.121094 2624.398438 1583.929688 2600.285156 1591.628906 2583.945312 C 1599.328125 2567.605469 1610.878906 2558.292969 1610.878906 2558.292969 "/>
<path fill-rule="nonzero" fill="rgb(100%, 48.242188%, 32.542419%)" fill-opacity="1" d="M 1641.390625 2855.242188 C 1641.390625 2837.105469 1661.570312 2822.398438 1686.46875 2822.398438 C 1711.359375 2822.398438 1731.539062 2837.105469 1731.539062 2855.242188 C 1731.539062 2873.382812 1711.359375 2888.085938 1686.46875 2888.085938 C 1661.570312 2888.085938 1641.390625 2873.382812 1641.390625 2855.242188 "/>
<path fill-rule="nonzero" fill="rgb(100%, 48.242188%, 32.542419%)" fill-opacity="1" d="M 1399.25 2855.242188 C 1399.25 2837.105469 1419.429688 2822.398438 1444.328125 2822.398438 C 1469.21875 2822.398438 1489.410156 2837.105469 1489.410156 2855.242188 C 1489.410156 2873.382812 1469.21875 2888.085938 1444.328125 2888.085938 C 1419.429688 2888.085938 1399.25 2873.382812 1399.25 2855.242188 "/>
<path fill="none" stroke-width="113.386" stroke-linecap="round" stroke-linejoin="round" stroke="rgb(29.026794%, 16.868591%, 13.719177%)" stroke-opacity="1" stroke-miterlimit="4" d="M 14984.492188 6618.28125 C 15191.484375 6953.90625 15429.804688 6845.195312 15499.6875 6592.539062 " transform="matrix(0.1, 0, 0, -0.1, 0, 3450)"/>
<path fill="none" stroke-width="113.386" stroke-linecap="round" stroke-linejoin="round" stroke="rgb(29.026794%, 16.868591%, 13.719177%)" stroke-opacity="1" stroke-miterlimit="4" d="M 16014.882812 6618.28125 C 16221.914062 6953.90625 16460.195312 6845.195312 16530.117188 6592.539062 " transform="matrix(0.1, 0, 0, -0.1, 0, 3450)"/>
<path fill-rule="nonzero" fill="rgb(66.601562%, 71.679688%, 100%)" fill-opacity="1" d="M 1817.261719 2618.386719 C 1817.261719 2618.386719 1791.460938 2406.691406 1914.308594 2408.449219 C 2052.941406 2410.429688 1940.050781 2636.210938 1817.261719 2618.386719 "/>
<path fill="none" stroke-width="113.386" stroke-linecap="round" stroke-linejoin="round" stroke="rgb(29.026794%, 16.868591%, 13.719177%)" stroke-opacity="1" stroke-miterlimit="4" d="M 18909.21875 4473.28125 C 19171.601562 3726.523438 18980.507812 4050.351562 19456.992188 3487.226562 " transform="matrix(0.1, 0, 0, -0.1, 0, 3450)"/>
<path fill="none" stroke-width="113.386" stroke-linecap="round" stroke-linejoin="round" stroke="rgb(29.026794%, 16.868591%, 13.719177%)" stroke-opacity="1" stroke-miterlimit="4" d="M 16653.59375 4255.195312 C 16613.007812 3835.585938 16611.09375 3575.585938 16293.59375 3284.765625 " transform="matrix(0.1, 0, 0, -0.1, 0, 3450)"/>
<path fill-rule="nonzero" fill="rgb(62.693787%, 68.164062%, 98.046875%)" fill-opacity="1" d="M 3048.691406 2624.191406 C 3048.691406 2624.191406 3022.058594 2405.699219 3148.851562 2407.511719 C 3291.941406 2409.558594 3175.421875 2642.585938 3048.691406 2624.191406 "/>
<path fill-rule="nonzero" fill="rgb(66.601562%, 71.679688%, 100%)" fill-opacity="1" d="M 2948.039062 2608.996094 C 2948.039062 2608.996094 2921.410156 2390.511719 3048.199219 2392.320312 C 3191.289062 2394.371094 3074.769531 2627.394531 2948.039062 2608.996094 "/>
<path fill-rule="nonzero" fill="rgb(29.026794%, 16.868591%, 13.719177%)" fill-opacity="1" d="M 2902.96875 3092.898438 C 2899.011719 3093.144531 2896 3096.558594 2896.25 3100.515625 C 2897.859375 3126.257812 2896.980469 3114.441406 2898.828125 3136.730469 C 2899.160156 3140.6875 2902.640625 3143.625 2906.589844 3143.296875 C 2908.488281 3143.140625 2910.25 3142.230469 2911.480469 3140.777344 C 2912.710938 3139.320312 2913.308594 3137.4375 2913.148438 3135.535156 C 2911.289062 3113.199219 2912.199219 3125.414062 2910.589844 3099.621094 C 2910.46875 3097.71875 2909.601562 3095.941406 2908.171875 3094.679688 C 2906.738281 3093.417969 2904.871094 3092.777344 2902.96875 3092.898438 "/>
<path fill-rule="nonzero" fill="rgb(29.026794%, 16.868591%, 13.719177%)" fill-opacity="1" d="M 2957.621094 3085.253906 C 2953.710938 3085.90625 2951.058594 3089.605469 2951.710938 3093.523438 C 2955.589844 3116.777344 2953.089844 3104.824219 2960.890625 3132.90625 C 2961.960938 3136.730469 2965.921875 3138.96875 2969.738281 3137.90625 C 2973.558594 3136.84375 2975.800781 3132.882812 2974.738281 3129.058594 C 2966.871094 3100.710938 2969.800781 3114.636719 2965.890625 3091.160156 C 2965.238281 3087.246094 2961.53125 3084.601562 2957.621094 3085.253906 "/>
<path fill-rule="nonzero" fill="rgb(62.693787%, 68.164062%, 98.046875%)" fill-opacity="1" d="M 2811.640625 2624.191406 C 2811.640625 2624.191406 2838.261719 2405.699219 2711.480469 2407.511719 C 2568.390625 2409.558594 2684.898438 2642.585938 2811.640625 2624.191406 "/>
<path fill-rule="nonzero" fill="rgb(66.601562%, 71.679688%, 100%)" fill-opacity="1" d="M 2912.289062 2608.996094 C 2912.289062 2608.996094 2938.910156 2390.511719 2812.121094 2392.320312 C 2669.039062 2394.371094 2785.550781 2627.394531 2912.289062 2608.996094 "/>
<path fill-rule="nonzero" fill="rgb(100%, 80.076599%, 0%)" fill-opacity="1" d="M 2930.480469 3114.722656 C 2866.941406 3114.722656 2701.96875 3077.574219 2701.96875 2879.484375 C 2701.96875 2681.390625 2743.199219 2524.199219 2930.480469 2520.808594 C 3117.75 2517.414062 3158.988281 2681.390625 3158.988281 2879.484375 C 3158.988281 3077.574219 2994.011719 3114.722656 2930.480469 3114.722656 "/>

<path fill-rule="nonzero" fill="rgb(29.026794%, 16.868591%, 13.719177%)" fill-opacity="1" d="M 2818.25 2458.375 C 2816.921875 2457.425781 2815.269531 2457.039062 2813.660156 2457.304688 C 2812.039062 2457.574219 2810.601562 2458.46875 2809.648438 2459.800781 C 2808.699219 2461.128906 2808.320312 2462.78125 2808.589844 2464.394531 C 2808.851562 2466.003906 2809.75 2467.445312 2811.078125 2468.394531 C 2839.191406 2488.511719 2851.949219 2513.183594 2856.78125 2557.609375 C 2857.148438 2560.992188 2860.191406 2563.433594 2863.570312 2563.066406 C 2866.949219 2562.699219 2869.398438 2559.660156 2869.03125 2556.277344 C 2863.980469 2509.902344 2848.941406 2480.339844 2818.25 2458.375 "/>
<path fill-rule="nonzero" fill="rgb(29.026794%, 16.868591%, 13.719177%)" fill-opacity="1" d="M 2872.539062 2743.847656 C 2870.390625 2743.535156 2868.199219 2744.097656 2866.449219 2745.402344 C 2864.710938 2746.707031 2863.550781 2748.652344 2863.238281 2750.808594 C 2862.929688 2752.964844 2863.488281 2755.15625 2864.800781 2756.898438 C 2884.839844 2783.671875 2912.800781 2793.347656 2937.609375 2791.300781 C 2962.429688 2789.253906 2984.601562 2776.289062 2994.578125 2757.050781 C 2995.589844 2755.117188 2995.78125 2752.863281 2995.121094 2750.789062 C 2994.460938 2748.710938 2993.011719 2746.980469 2991.078125 2745.976562 C 2987.050781 2743.890625 2982.089844 2745.457031 2980 2749.484375 C 2973.371094 2762.253906 2956.03125 2773.300781 2936.261719 2774.929688 C 2916.5 2776.5625 2894.808594 2769.589844 2877.949219 2747.058594 C 2876.640625 2745.3125 2874.699219 2744.160156 2872.539062 2743.847656 "/>
<path fill-rule="nonzero" fill="rgb(100%, 48.242188%, 32.542419%)" fill-opacity="1" d="M 3001.289062 2712.941406 C 3001.289062 2694.800781 3021.46875 2680.097656 3046.371094 2680.097656 C 3071.261719 2680.097656 3091.441406 2694.800781 3091.441406 2712.941406 C 3091.441406 2731.078125 3071.261719 2745.78125 3046.371094 2745.78125 C 3021.46875 2745.78125 3001.289062 2731.078125 3001.289062 2712.941406 "/>
<path fill-rule="nonzero" fill="rgb(100%, 48.242188%, 32.542419%)" fill-opacity="1" d="M 2759.148438 2712.941406 C 2759.148438 2694.800781 2779.328125 2680.097656 2804.230469 2680.097656 C 2829.121094 2680.097656 2849.308594 2694.800781 2849.308594 2712.941406 C 2849.308594 2731.078125 2829.121094 2745.78125 2804.230469 2745.78125 C 2779.328125 2745.78125 2759.148438 2731.078125 2759.148438 2712.941406 "/>
<path fill-rule="nonzero" fill="rgb(29.026794%, 16.868591%, 13.719177%)" fill-opacity="1" d="M 3011.039062 2458.375 C 3012.371094 2457.425781 3014.019531 2457.039062 3015.628906 2457.304688 C 3017.25 2457.574219 3018.691406 2458.46875 3019.640625 2459.800781 C 3020.589844 2461.128906 3020.96875 2462.78125 3020.710938 2464.394531 C 3020.441406 2466.003906 3019.539062 2467.445312 3018.210938 2468.394531 C 2990.101562 2488.511719 2977.339844 2513.183594 2972.511719 2557.609375 C 2972.140625 2560.992188 2969.101562 2563.433594 2965.71875 2563.066406 C 2964.101562 2562.890625 2962.609375 2562.074219 2961.589844 2560.804688 C 2960.558594 2559.527344 2960.089844 2557.902344 2960.261719 2556.277344 C 2965.308594 2509.902344 2980.351562 2480.339844 3011.039062 2458.375 "/>
<path fill-rule="nonzero" fill="rgb(29.026794%, 16.868591%, 13.719177%)" fill-opacity="1" d="M 2813.820312 2653.351562 C 2812.488281 2653.542969 2811.140625 2653.199219 2810.070312 2652.398438 C 2808.988281 2651.59375 2808.28125 2650.394531 2808.089844 2649.066406 C 2807.898438 2647.742188 2808.25 2646.390625 2809.050781 2645.316406 C 2821.390625 2628.835938 2838.601562 2622.878906 2853.878906 2624.136719 C 2869.160156 2625.398438 2882.800781 2633.378906 2888.949219 2645.222656 C 2889.570312 2646.414062 2889.691406 2647.800781 2889.289062 2649.078125 C 2888.878906 2650.359375 2887.980469 2651.425781 2886.789062 2652.039062 C 2884.308594 2653.328125 2881.261719 2652.359375 2879.980469 2649.882812 C 2875.890625 2642.019531 2865.21875 2635.222656 2853.050781 2634.21875 C 2840.878906 2633.210938 2827.53125 2637.503906 2817.148438 2651.378906 C 2816.339844 2652.449219 2815.148438 2653.160156 2813.820312 2653.351562 "/>
<path fill-rule="nonzero" fill="rgb(29.026794%, 16.868591%, 13.719177%)" fill-opacity="1" d="M 3031.460938 2653.351562 C 3032.789062 2653.542969 3034.140625 2653.199219 3035.210938 2652.398438 C 3036.28125 2651.59375 3036.988281 2650.394531 3037.191406 2649.066406 C 3037.378906 2647.742188 3037.03125 2646.390625 3036.230469 2645.316406 C 3023.890625 2628.835938 3006.679688 2622.878906 2991.398438 2624.136719 C 2976.121094 2625.398438 2962.480469 2633.378906 2956.328125 2645.222656 C 2955.710938 2646.414062 2955.589844 2647.800781 2955.988281 2649.078125 C 2956.398438 2650.359375 2957.300781 2651.425781 2958.488281 2652.039062 C 2960.960938 2653.328125 2964.019531 2652.359375 2965.300781 2649.882812 C 2969.390625 2642.019531 2980.058594 2635.222656 2992.230469 2634.21875 C 3004.398438 2633.210938 3017.75 2637.503906 3028.128906 2651.378906 C 3028.941406 2652.449219 3030.128906 2653.160156 3031.460938 2653.351562 "/>
</svg>
